<?xml version="1.0" encoding="utf-8"?>
<!-- Generator: Adobe Illustrator 19.0.0, SVG Export Plug-In . SVG Version: 6.00 Build 0)  -->
<svg version="1.1" id="Layer_1" xmlns="http://www.w3.org/2000/svg" xmlns:xlink="http://www.w3.org/1999/xlink" x="0px" y="0px"
	 viewBox="0 0 438.7 351.8" style="enable-background:new 0 0 438.7 351.8;" xml:space="preserve">
<style type="text/css">
	.st0{fill:#D92229;}
.st0 {
stroke:#ffffff;
	stroke-dasharray:800;
	stroke-dashoffset:0;
	-webkit-animation: dash 2s linear forwards;
	animation: dash 2s linear forwards;
	stroke-width:2px
}
	@-webkit-keyframes dash{
	from{
	stroke-dashoffset:800;
	}
	to{
	stroke-dashoffset:800;
	}
	}
</style>
<g id="inverse_x5F_arrow">
	<path id="XMLID_1072_" class="st0" d="M31,131.6c0,4.3-3.5,7.9-7.9,7.9c-4.3,0-7.9-3.5-7.9-7.9c0-4.3,3.5-7.9,7.9-7.9
		C27.4,123.8,31,127.3,31,131.6"/>
	<path id="XMLID_1071_" class="st0" d="M48.9,131.6c0,4.3-3.5,7.9-7.9,7.9c-4.3,0-7.9-3.5-7.9-7.9c0-4.3,3.5-7.9,7.9-7.9
		C45.4,123.8,48.9,127.3,48.9,131.6"/>
	<path id="XMLID_1070_" class="st0" d="M66.9,131.6c0,4.3-3.5,7.9-7.9,7.9c-4.3,0-7.9-3.5-7.9-7.9c0-4.3,3.5-7.9,7.9-7.9
		C63.3,123.8,66.9,127.3,66.9,131.6"/>
	<path id="XMLID_1069_" class="st0" d="M84.8,131.6c0,4.3-3.5,7.9-7.9,7.9c-4.3,0-7.9-3.5-7.9-7.9c0-4.3,3.5-7.9,7.9-7.9
		C81.3,123.8,84.8,127.3,84.8,131.6"/>
	<path id="XMLID_1068_" class="st0" d="M102.8,131.6c0,4.3-3.5,7.9-7.9,7.9c-4.3,0-7.9-3.5-7.9-7.9c0-4.3,3.5-7.9,7.9-7.9
		C99.2,123.8,102.8,127.3,102.8,131.6"/>
	<path id="XMLID_1067_" class="st0" d="M120.7,131.6c0,4.3-3.5,7.9-7.9,7.9c-4.3,0-7.9-3.5-7.9-7.9c0-4.3,3.5-7.9,7.9-7.9
		C117.2,123.8,120.7,127.3,120.7,131.6"/>
	<path id="XMLID_1066_" class="st0" d="M138.6,131.6c0,4.3-3.5,7.9-7.9,7.9c-4.3,0-7.9-3.5-7.9-7.9c0-4.3,3.5-7.9,7.9-7.9
		C135.1,123.8,138.6,127.3,138.6,131.6"/>
	<path id="XMLID_1065_" class="st0" d="M156.5,131.6c0,4.3-3.5,7.9-7.9,7.9c-4.3,0-7.9-3.5-7.9-7.9c0-4.3,3.5-7.9,7.9-7.9
		C153,123.8,156.5,127.3,156.5,131.6"/>
	<path id="XMLID_1064_" class="st0" d="M31,149.6c0,4.3-3.5,7.9-7.9,7.9c-4.3,0-7.9-3.5-7.9-7.9c0-4.3,3.5-7.9,7.9-7.9
		C27.4,141.7,31,145.3,31,149.6"/>
	<path id="XMLID_1063_" class="st0" d="M102.8,149.6c0,4.3-3.5,7.9-7.9,7.9c-4.3,0-7.9-3.5-7.9-7.9c0-4.3,3.5-7.9,7.9-7.9
		C99.2,141.7,102.8,145.3,102.8,149.6"/>
	<path id="XMLID_1062_" class="st0" d="M120.7,149.6c0,4.3-3.5,7.9-7.9,7.9c-4.3,0-7.9-3.5-7.9-7.9c0-4.3,3.5-7.9,7.9-7.9
		C117.2,141.7,120.7,145.3,120.7,149.6"/>
	<path id="XMLID_1061_" class="st0" d="M138.6,149.6c0,4.3-3.5,7.9-7.9,7.9c-4.3,0-7.9-3.5-7.9-7.9c0-4.3,3.5-7.9,7.9-7.9
		C135.1,141.7,138.6,145.3,138.6,149.6"/>
	<path id="XMLID_1060_" class="st0" d="M156.5,149.6c0,4.3-3.5,7.9-7.9,7.9c-4.3,0-7.9-3.5-7.9-7.9c0-4.3,3.5-7.9,7.9-7.9
		C153,141.7,156.5,145.3,156.5,149.6"/>
	<path id="XMLID_1059_" class="st0" d="M31,167.5c0,4.3-3.5,7.9-7.9,7.9c-4.3,0-7.9-3.5-7.9-7.9c0-4.3,3.5-7.9,7.9-7.9
		C27.4,159.7,31,163.2,31,167.5"/>
	<path id="XMLID_1058_" class="st0" d="M48.9,167.5c0,4.3-3.5,7.9-7.9,7.9c-4.3,0-7.9-3.5-7.9-7.9c0-4.3,3.5-7.9,7.9-7.9
		C45.4,159.7,48.9,163.2,48.9,167.5"/>
	<path id="XMLID_1057_" class="st0" d="M120.7,167.5c0,4.3-3.5,7.9-7.9,7.9c-4.3,0-7.9-3.5-7.9-7.9c0-4.3,3.5-7.9,7.9-7.9
		C117.2,159.7,120.7,163.2,120.7,167.5"/>
	<path id="XMLID_1056_" class="st0" d="M138.6,167.5c0,4.3-3.5,7.9-7.9,7.9c-4.3,0-7.9-3.5-7.9-7.9c0-4.3,3.5-7.9,7.9-7.9
		C135.1,159.7,138.6,163.2,138.6,167.5"/>
	<path id="XMLID_1055_" class="st0" d="M156.5,167.5c0,4.3-3.5,7.9-7.9,7.9c-4.3,0-7.9-3.5-7.9-7.9c0-4.3,3.5-7.9,7.9-7.9
		C153,159.7,156.5,163.2,156.5,167.5"/>
	<path id="XMLID_1054_" class="st0" d="M31,185.5c0,4.3-3.5,7.9-7.9,7.9c-4.3,0-7.9-3.5-7.9-7.9c0-4.3,3.5-7.9,7.9-7.9
		C27.4,177.6,31,181.2,31,185.5"/>
	<path id="XMLID_1053_" class="st0" d="M48.9,185.5c0,4.3-3.5,7.9-7.9,7.9c-4.3,0-7.9-3.5-7.9-7.9c0-4.3,3.5-7.9,7.9-7.9
		C45.4,177.6,48.9,181.2,48.9,185.5"/>
	<path id="XMLID_1052_" class="st0" d="M66.9,185.5c0,4.3-3.5,7.9-7.9,7.9c-4.3,0-7.9-3.5-7.9-7.9c0-4.3,3.5-7.9,7.9-7.9
		C63.3,177.6,66.9,181.2,66.9,185.5"/>
	<path id="XMLID_1051_" class="st0" d="M138.6,185.5c0,4.3-3.5,7.9-7.9,7.9c-4.3,0-7.9-3.5-7.9-7.9c0-4.3,3.5-7.9,7.9-7.9
		C135.1,177.6,138.6,181.2,138.6,185.5"/>
	<path id="XMLID_1050_" class="st0" d="M156.5,185.5c0,4.3-3.5,7.9-7.9,7.9c-4.3,0-7.9-3.5-7.9-7.9c0-4.3,3.5-7.9,7.9-7.9
		C153,177.6,156.5,181.2,156.5,185.5"/>
	<path id="XMLID_1049_" class="st0" d="M31,203.4c0,4.3-3.5,7.9-7.9,7.9c-4.3,0-7.9-3.5-7.9-7.9c0-4.3,3.5-7.9,7.9-7.9
		C27.4,195.6,31,199.1,31,203.4"/>
	<path id="XMLID_1048_" class="st0" d="M48.9,203.4c0,4.3-3.5,7.9-7.9,7.9c-4.3,0-7.9-3.5-7.9-7.9c0-4.3,3.5-7.9,7.9-7.9
		C45.4,195.6,48.9,199.1,48.9,203.4"/>
	<path id="XMLID_1047_" class="st0" d="M66.9,203.4c0,4.3-3.5,7.9-7.9,7.9c-4.3,0-7.9-3.5-7.9-7.9c0-4.3,3.5-7.9,7.9-7.9
		C63.3,195.6,66.9,199.1,66.9,203.4"/>
	<path id="XMLID_1046_" class="st0" d="M84.8,203.4c0,4.3-3.5,7.9-7.9,7.9c-4.3,0-7.9-3.5-7.9-7.9c0-4.3,3.5-7.9,7.9-7.9
		C81.3,195.6,84.8,199.1,84.8,203.4"/>
	<path id="XMLID_1045_" class="st0" d="M156.5,203.4c0,4.3-3.5,7.9-7.9,7.9c-4.3,0-7.9-3.5-7.9-7.9c0-4.3,3.5-7.9,7.9-7.9
		C153,195.6,156.5,199.1,156.5,203.4"/>
	<path id="XMLID_1044_" class="st0" d="M31,221.4c0,4.3-3.5,7.9-7.9,7.9c-4.3,0-7.9-3.5-7.9-7.9c0-4.3,3.5-7.9,7.9-7.9
		C27.4,213.5,31,217.1,31,221.4"/>
	<path id="XMLID_1043_" class="st0" d="M48.9,221.4c0,4.3-3.5,7.9-7.9,7.9c-4.3,0-7.9-3.5-7.9-7.9c0-4.3,3.5-7.9,7.9-7.9
		C45.4,213.5,48.9,217.1,48.9,221.4"/>
	<path id="XMLID_1042_" class="st0" d="M66.9,221.4c0,4.3-3.5,7.9-7.9,7.9c-4.3,0-7.9-3.5-7.9-7.9c0-4.3,3.5-7.9,7.9-7.9
		C63.3,213.5,66.9,217.1,66.9,221.4"/>
	<path id="XMLID_1041_" class="st0" d="M138.6,221.4c0,4.3-3.5,7.9-7.9,7.9c-4.3,0-7.9-3.5-7.9-7.9c0-4.3,3.5-7.9,7.9-7.9
		C135.1,213.5,138.6,217.1,138.6,221.4"/>
	<path id="XMLID_1040_" class="st0" d="M156.5,221.4c0,4.3-3.5,7.9-7.9,7.9c-4.3,0-7.9-3.5-7.9-7.9c0-4.3,3.5-7.9,7.9-7.9
		C153,213.5,156.5,217.1,156.5,221.4"/>
	<path id="XMLID_1039_" class="st0" d="M31,239.4c0,4.3-3.5,7.9-7.9,7.9c-4.3,0-7.9-3.5-7.9-7.9c0-4.3,3.5-7.9,7.9-7.9
		C27.4,231.5,31,235,31,239.4"/>
	<path id="XMLID_1038_" class="st0" d="M48.9,239.4c0,4.3-3.5,7.9-7.9,7.9c-4.3,0-7.9-3.5-7.9-7.9c0-4.3,3.5-7.9,7.9-7.9
		C45.4,231.5,48.9,235,48.9,239.4"/>
	<path id="XMLID_1037_" class="st0" d="M120.7,239.4c0,4.3-3.5,7.9-7.9,7.9c-4.3,0-7.9-3.5-7.9-7.9c0-4.3,3.5-7.9,7.9-7.9
		C117.2,231.5,120.7,235,120.7,239.4"/>
	<path id="XMLID_1036_" class="st0" d="M138.6,239.4c0,4.3-3.5,7.9-7.9,7.9c-4.3,0-7.9-3.5-7.9-7.9c0-4.3,3.5-7.9,7.9-7.9
		C135.1,231.5,138.6,235,138.6,239.4"/>
	<path id="XMLID_1035_" class="st0" d="M156.5,239.4c0,4.3-3.5,7.9-7.9,7.9c-4.3,0-7.9-3.5-7.9-7.9c0-4.3,3.5-7.9,7.9-7.9
		C153,231.5,156.5,235,156.5,239.4"/>
	<path id="XMLID_1034_" class="st0" d="M31,257.3c0,4.3-3.5,7.9-7.9,7.9c-4.3,0-7.9-3.5-7.9-7.9c0-4.3,3.5-7.9,7.9-7.9
		C27.4,249.4,31,253,31,257.3"/>
	<path id="XMLID_1033_" class="st0" d="M102.8,257.3c0,4.3-3.5,7.9-7.9,7.9c-4.3,0-7.9-3.5-7.9-7.9c0-4.3,3.5-7.9,7.9-7.9
		C99.2,249.4,102.8,253,102.8,257.3"/>
	<path id="XMLID_1032_" class="st0" d="M120.7,257.3c0,4.3-3.5,7.9-7.9,7.9c-4.3,0-7.9-3.5-7.9-7.9c0-4.3,3.5-7.9,7.9-7.9
		C117.2,249.4,120.7,253,120.7,257.3"/>
	<path id="XMLID_1031_" class="st0" d="M138.6,257.3c0,4.3-3.5,7.9-7.9,7.9c-4.3,0-7.9-3.5-7.9-7.9c0-4.3,3.5-7.9,7.9-7.9
		C135.1,249.4,138.6,253,138.6,257.3"/>
	<path id="XMLID_1030_" class="st0" d="M156.5,257.3c0,4.3-3.5,7.9-7.9,7.9c-4.3,0-7.9-3.5-7.9-7.9c0-4.3,3.5-7.9,7.9-7.9
		C153,249.4,156.5,253,156.5,257.3"/>
	<path id="XMLID_1029_" class="st0" d="M31,275.3c0,4.3-3.5,7.9-7.9,7.9c-4.3,0-7.9-3.5-7.9-7.9c0-4.3,3.5-7.9,7.9-7.9
		C27.4,267.4,31,270.9,31,275.3"/>
	<path id="XMLID_1028_" class="st0" d="M48.9,275.3c0,4.3-3.5,7.9-7.9,7.9c-4.3,0-7.9-3.5-7.9-7.9c0-4.3,3.5-7.9,7.9-7.9
		C45.4,267.4,48.9,270.9,48.9,275.3"/>
	<path id="XMLID_1027_" class="st0" d="M66.9,275.3c0,4.3-3.5,7.9-7.9,7.9c-4.3,0-7.9-3.5-7.9-7.9c0-4.3,3.5-7.9,7.9-7.9
		C63.3,267.4,66.9,270.9,66.9,275.3"/>
	<path id="XMLID_1026_" class="st0" d="M84.8,275.3c0,4.3-3.5,7.9-7.9,7.9c-4.3,0-7.9-3.5-7.9-7.9c0-4.3,3.5-7.9,7.9-7.9
		C81.3,267.4,84.8,270.9,84.8,275.3"/>
	<path id="XMLID_1025_" class="st0" d="M102.8,275.3c0,4.3-3.5,7.9-7.9,7.9c-4.3,0-7.9-3.5-7.9-7.9c0-4.3,3.5-7.9,7.9-7.9
		C99.2,267.4,102.8,270.9,102.8,275.3"/>
	<path id="XMLID_1024_" class="st0" d="M120.7,275.3c0,4.3-3.5,7.9-7.9,7.9c-4.3,0-7.9-3.5-7.9-7.9c0-4.3,3.5-7.9,7.9-7.9
		C117.2,267.4,120.7,270.9,120.7,275.3"/>
	<path id="XMLID_1023_" class="st0" d="M138.6,275.3c0,4.3-3.5,7.9-7.9,7.9c-4.3,0-7.9-3.5-7.9-7.9c0-4.3,3.5-7.9,7.9-7.9
		C135.1,267.4,138.6,270.9,138.6,275.3"/>
	<path id="XMLID_1022_" class="st0" d="M156.5,275.3c0,4.3-3.5,7.9-7.9,7.9c-4.3,0-7.9-3.5-7.9-7.9c0-4.3,3.5-7.9,7.9-7.9
		C153,267.4,156.5,270.9,156.5,275.3"/>
</g>
<path id="dot" class="st0" d="M204.8,38.4c0,4.8-3.9,8.6-8.6,8.6c-4.8,0-8.6-3.9-8.6-8.6c0-4.8,3.9-8.6,8.6-8.6
	C200.9,29.7,204.8,33.6,204.8,38.4"/>
<g id="arrow">
	<path id="XMLID_45_" class="st0" d="M402.1,190.9c-4.8,0-8.8,3.9-8.8,8.8c0,4.8,3.9,8.8,8.8,8.8c4.8,0,8.8-3.9,8.8-8.8
		C410.9,194.9,406.9,190.9,402.1,190.9"/>
	<path id="XMLID_44_" class="st0" d="M378.3,213.3c-4.8,0-8.8,3.9-8.8,8.8s3.9,8.8,8.8,8.8c4.8,0,8.8-3.9,8.8-8.8
		S383.1,213.3,378.3,213.3"/>
	<path id="XMLID_43_" class="st0" d="M378.3,190.9c-4.8,0-8.8,3.9-8.8,8.8c0,4.8,3.9,8.8,8.8,8.8c4.8,0,8.8-3.9,8.8-8.8
		C387,194.9,383.1,190.9,378.3,190.9"/>
	<path id="XMLID_42_" class="st0" d="M378.3,168.6c-4.8,0-8.8,3.9-8.8,8.8c0,4.8,3.9,8.8,8.8,8.8c4.8,0,8.8-3.9,8.8-8.8
		C387,172.5,383.1,168.6,378.3,168.6"/>
	<path id="XMLID_41_" class="st0" d="M356.6,235.7c-4.8,0-8.8,3.9-8.8,8.8c0,4.8,3.9,8.8,8.8,8.8c4.8,0,8.8-3.9,8.8-8.8
		C365.3,239.7,361.4,235.7,356.6,235.7"/>
	<path id="XMLID_40_" class="st0" d="M356.6,213.3c-4.8,0-8.8,3.9-8.8,8.8s3.9,8.8,8.8,8.8c4.8,0,8.8-3.9,8.8-8.8
		S361.4,213.3,356.6,213.3"/>
	<path id="XMLID_39_" class="st0" d="M356.6,190.9c-4.8,0-8.8,3.9-8.8,8.8c0,4.8,3.9,8.8,8.8,8.8c4.8,0,8.8-3.9,8.8-8.8
		C365.3,194.9,361.4,190.9,356.6,190.9"/>
	<path id="XMLID_38_" class="st0" d="M356.6,168.6c-4.8,0-8.8,3.9-8.8,8.8c0,4.8,3.9,8.8,8.8,8.8c4.8,0,8.8-3.9,8.8-8.8
		C365.3,172.5,361.4,168.6,356.6,168.6"/>
	<path id="XMLID_37_" class="st0" d="M356.6,146.2c-4.8,0-8.8,3.9-8.8,8.8c0,4.8,3.9,8.8,8.8,8.8c4.8,0,8.8-3.9,8.8-8.8
		C365.3,150.1,361.4,146.2,356.6,146.2"/>
	<path id="XMLID_36_" class="st0" d="M334.6,258.1c-4.8,0-8.8,3.9-8.8,8.8c0,4.8,3.9,8.8,8.8,8.8c4.8,0,8.8-3.9,8.8-8.8
		C343.4,262.1,339.5,258.1,334.6,258.1"/>
	<path id="XMLID_35_" class="st0" d="M334.6,235.7c-4.8,0-8.8,3.9-8.8,8.8c0,4.8,3.9,8.8,8.8,8.8c4.8,0,8.8-3.9,8.8-8.8
		C343.4,239.7,339.5,235.7,334.6,235.7"/>
	<path id="XMLID_34_" class="st0" d="M334.6,213.3c-4.8,0-8.8,3.9-8.8,8.8s3.9,8.8,8.8,8.8c4.8,0,8.8-3.9,8.8-8.8
		S339.5,213.3,334.6,213.3"/>
	<path id="XMLID_33_" class="st0" d="M334.6,168.6c-4.8,0-8.8,3.9-8.8,8.8c0,4.8,3.9,8.8,8.8,8.8c4.8,0,8.8-3.9,8.8-8.8
		C343.4,172.5,339.5,168.6,334.6,168.6"/>
	<path id="XMLID_32_" class="st0" d="M334.6,146.2c-4.8,0-8.8,3.9-8.8,8.8c0,4.8,3.9,8.8,8.8,8.8c4.8,0,8.8-3.9,8.8-8.8
		C343.4,150.1,339.5,146.2,334.6,146.2"/>
	<path id="XMLID_31_" class="st0" d="M312.9,258.1c-4.8,0-8.8,3.9-8.8,8.8c0,4.8,3.9,8.8,8.8,8.8c4.8,0,8.8-3.9,8.8-8.8
		C321.7,262.1,317.8,258.1,312.9,258.1"/>
	<path id="XMLID_30_" class="st0" d="M312.9,235.7c-4.8,0-8.8,3.9-8.8,8.8c0,4.8,3.9,8.8,8.8,8.8c4.8,0,8.8-3.9,8.8-8.8
		C321.7,239.7,317.8,235.7,312.9,235.7"/>
	<path id="XMLID_29_" class="st0" d="M312.9,146.2c-4.8,0-8.8,3.9-8.8,8.8c0,4.8,3.9,8.8,8.8,8.8c4.8,0,8.8-3.9,8.8-8.8
		C321.7,150.1,317.8,146.2,312.9,146.2"/>
	<path id="XMLID_28_" class="st0" d="M289.3,123.8c-4.8,0-8.8,3.9-8.8,8.8c0,4.8,3.9,8.8,8.8,8.8c4.8,0,8.8-3.9,8.8-8.8
		C298.1,127.7,294.1,123.8,289.3,123.8"/>
	<path id="XMLID_27_" class="st0" d="M289.3,258.1c-4.8,0-8.8,3.9-8.8,8.8s3.9,8.8,8.8,8.8c4.8,0,8.8-3.9,8.8-8.8
		S294.1,258.1,289.3,258.1"/>
	<path id="XMLID_26_" class="st0" d="M334.6,123.8c-4.8,0-8.8,3.9-8.8,8.8c0,4.8,3.9,8.8,8.8,8.8c4.8,0,8.8-3.9,8.8-8.8
		C343.4,127.7,339.5,123.8,334.6,123.8"/>
	<path id="XMLID_25_" class="st0" d="M312.9,123.8c-4.8,0-8.8,3.9-8.8,8.8c0,4.8,3.9,8.8,8.8,8.8c4.8,0,8.8-3.9,8.8-8.8
		C321.7,127.7,317.8,123.8,312.9,123.8"/>
</g>
</svg>
